<svg width="48" height="48" viewBox="0 0 48 48" fill="none" xmlns="http://www.w3.org/2000/svg">
<path d="M7.09779 36.7609C6.53292 36.7609 6.06544 36.5699 5.69534 36.188C5.3252 35.8061 5.14014 35.3429 5.14014 34.7984C5.14014 34.2538 5.3252 33.7985 5.69534 33.4326C6.06544 33.0667 6.53292 32.8837 7.09779 32.8837H40.9521C41.4845 32.8837 41.9375 33.0696 42.3111 33.4414C42.6848 33.8132 42.8717 34.2713 42.8717 34.8159C42.8717 35.3604 42.6848 35.8207 42.3111 36.1967C41.9375 36.5729 41.4845 36.7609 40.9521 36.7609H7.09779ZM7.09779 25.9195C6.53292 25.9195 6.06544 25.7286 5.69534 25.3467C5.3252 24.9648 5.14014 24.5055 5.14014 23.969C5.14014 23.4244 5.3252 22.9692 5.69534 22.6033C6.06544 22.2373 6.53292 22.0543 7.09779 22.0543H40.9521C41.4845 22.0543 41.9375 22.2402 42.3111 22.6121C42.6848 22.9838 42.8717 23.442 42.8717 23.9865C42.8717 24.5231 42.6848 24.9794 42.3111 25.3555C41.9375 25.7315 41.4845 25.9195 40.9521 25.9195H7.09779ZM7.09779 15.0782C6.53292 15.0782 6.06544 14.8893 5.69534 14.5113C5.3252 14.1334 5.14014 13.6682 5.14014 13.1157C5.14014 12.5791 5.3252 12.1259 5.69534 11.756C6.06544 11.3861 6.53292 11.2011 7.09779 11.2011H40.9521C41.4845 11.2011 41.9375 11.389 42.3111 11.7647C42.6848 12.1405 42.8717 12.5967 42.8717 13.1332C42.8717 13.6857 42.6848 14.1481 42.3111 14.5202C41.9375 14.8922 41.4845 15.0782 40.9521 15.0782H7.09779Z" fill="white"/>
</svg>
